# xmcd
#
# Track frame offsets:
#	150
#	27650
#	54195
#	69928
#	84762
#	100312
#	130398
#	163970
#	222004
#
# Disc length: 4440 seconds
#
# Revision: 1
# Processed by: cddbd v1.5.1PL0 Copyright (c) Steve Scherf et al.
# Submitted via: EasyCDDAExtractor 7.0.5.1
#
DISCID=74115609
DTITLE=Nina Simone - Nina Simone At Carnegie Hall
DYEAR=2005
DGENRE=Blues
TTITLE0=Black Swan (From The Medium)
TTITLE1=Theme From Samson And Delilah
TTITLE2=If You Knew
TTITLE3=Theme From Sayonara
TTITLE4=The Twelfth Of Never
TTITLE5=Will I Find My Love Today
TTITLE6=Medley a. The Other Woman, b. Cotton Eyed Joe
TTITLE7=Work Song
TTITLE8=Data Track
EXTD=
EXTT0=
EXTT1=
EXTT2=
EXTT3=
EXTT4=
EXTT5=
EXTT6=
EXTT7=
EXTT8=
PLAYORDER=
